HIERARCHY
ROOT joint_0
{
	OFFSET 0.000000 0.000000 0.000000
	CHANNELS 6 Xposition Yposition Zposition Zrotation Yrotation Xrotation 
	JOINT joint_1
	{
		OFFSET 17.107422 0.519409 105.452026
		CHANNELS 3 Zrotation Yrotation Xrotation
		JOINT joint_2
		{
			OFFSET 6.110352 -1.434082 97.381958
			CHANNELS 3 Zrotation Yrotation Xrotation
			JOINT joint_3
			{
				OFFSET 6.305908 -1.739990 97.255005
				CHANNELS 3 Zrotation Yrotation Xrotation
				JOINT joint_4
				{
					OFFSET 22.074707 -0.492493 131.077026
					CHANNELS 3 Zrotation Yrotation Xrotation
					JOINT joint_5
					{
						OFFSET 34.162842 2.248718 78.700928
						CHANNELS 3 Zrotation Yrotation Xrotation
						End Site
						{
							OFFSET 0.000000 0.000000 0.000000
						}
					}
				}
				JOINT joint_6
				{
					OFFSET 17.059082 -28.836914 72.664062
					CHANNELS 3 Zrotation Yrotation Xrotation
					JOINT joint_7
					{
						OFFSET 22.639893 -134.803833 -24.691040
						CHANNELS 3 Zrotation Yrotation Xrotation
						JOINT joint_8
						{
							OFFSET 7.301758 -32.590759 -269.966064
							CHANNELS 3 Zrotation Yrotation Xrotation
							JOINT joint_9
							{
								OFFSET 35.581055 -8.517151 -242.326965
								CHANNELS 3 Zrotation Yrotation Xrotation
								End Site
								{
									OFFSET 0.000000 0.000000 0.000000
								}
							}
						}
					}
				}
				JOINT joint_10
				{
					OFFSET 7.819092 28.232056 74.432983
					CHANNELS 3 Zrotation Yrotation Xrotation
					JOINT joint_11
					{
						OFFSET -23.457031 135.063843 -22.406982
						CHANNELS 3 Zrotation Yrotation Xrotation
						JOINT joint_12
						{
							OFFSET 17.896973 48.138672 -267.131958
							CHANNELS 3 Zrotation Yrotation Xrotation
							JOINT joint_13
							{
								OFFSET 46.526367 17.567627 -239.975037
								CHANNELS 3 Zrotation Yrotation Xrotation
								End Site
								{
									OFFSET 0.000000 0.000000 0.000000
								}
							}
						}
					}
				}
			}
		}
	}
	JOINT joint_14
	{
		OFFSET 10.553467 -100.140320 -126.306030
		CHANNELS 3 Zrotation Yrotation Xrotation
		JOINT joint_15
		{
			OFFSET -52.094238 -9.565002 -436.052002
			CHANNELS 3 Zrotation Yrotation Xrotation
			JOINT joint_16
			{
				OFFSET -55.682617 -11.310120 -462.482971
				CHANNELS 3 Zrotation Yrotation Xrotation
				JOINT joint_17
				{
					OFFSET 179.119385 -5.942566 -84.087004
					CHANNELS 3 Zrotation Yrotation Xrotation
					End Site
					{
						OFFSET 0.000000 0.000000 0.000000
					}
				}
			}
		}
	}
	JOINT joint_18
	{
		OFFSET -22.235352 101.620483 -123.583984
		CHANNELS 3 Zrotation Yrotation Xrotation
		JOINT joint_19
		{
			OFFSET -38.118408 12.306396 -437.429016
			CHANNELS 3 Zrotation Yrotation Xrotation
			JOINT joint_20
			{
				OFFSET -51.789307 8.010498 -463.006004
				CHANNELS 3 Zrotation Yrotation Xrotation
				JOINT joint_21
				{
					OFFSET 170.088135 59.632324 -83.078003
					CHANNELS 3 Zrotation Yrotation Xrotation
					End Site
					{
						OFFSET 0.000000 0.000000 0.000000
					}
				}
			}
		}
	}
}
MOTION
Frames: 9
Frame Time: 0.016667
-3546.665527 972.228088 1127.017944 -1.249553 -4.344727 -0.516497 0.130224 1.909387 0.440043 0.122593 -0.418195 -0.111840 0.125465 0.437564 0.070125 0.159112 -1.889518 -0.237660 0.000000 0.000000 0.000000 -3.138982 3.999172 0.429266 -0.428165 3.262871 -0.966726 -0.008167 -0.359774 -0.145084 0.000000 0.000000 0.000000 -3.518863 3.111942 -1.086988 0.973056 3.986308 -0.374251 0.572927 0.679470 2.650873 0.000000 0.000000 0.000000 0.059572 -0.666759 -2.349532 -0.303185 2.881428 -0.010815 -0.285126 2.236644 -0.058260 0.000000 0.000000 0.000000 -1.283549 1.084224 1.743341 -1.039041 1.910539 -0.843393 -1.100243 0.195340 -0.603494 0.000000 0.000000 0.000000 
-3545.313965 972.468506 1126.819946 -1.216429 -4.331006 -0.518652 0.165749 2.062582 0.495963 0.159558 -0.450675 -0.125944 0.161737 0.469275 0.084149 0.160840 -1.970759 -0.237037 0.000000 0.000000 0.000000 -3.197372 4.000529 0.389879 -0.423597 3.256933 -0.983533 -0.004305 -0.372406 -0.121868 0.000000 0.000000 0.000000 -3.506030 3.093257 -1.146508 0.967651 3.983227 -0.325434 0.557136 0.649618 2.583938 0.000000 0.000000 0.000000 0.108625 -0.551177 -2.393801 -0.258188 2.824404 0.008560 -0.238285 2.129706 -0.040030 0.000000 0.000000 0.000000 -1.222996 0.990538 1.734526 -0.962318 2.210820 -0.903323 -1.051118 -0.020567 -0.503957 0.000000 0.000000 0.000000 
-3543.927979 972.913147 1126.546997 -1.206798 -4.309477 -0.531364 0.210506 2.278436 0.599076 0.208576 -0.486246 -0.152774 0.208553 0.499626 0.109752 0.166204 -2.087381 -0.242635 0.000000 0.000000 0.000000 -3.238995 3.981955 0.285304 -0.420856 3.252785 -0.957049 -0.002696 -0.399831 -0.117616 0.000000 0.000000 0.000000 -3.468706 3.053745 -1.234904 0.957777 3.959162 -0.278561 0.539956 0.612670 2.512696 0.000000 0.000000 0.000000 0.175174 -0.452676 -2.447850 -0.199509 2.779019 0.043807 -0.175909 2.003378 -0.015202 0.000000 0.000000 0.000000 -1.189518 0.849082 1.744894 -0.906179 2.599794 -0.972846 -1.027148 -0.284035 -0.399954 0.000000 0.000000 0.000000 
-3542.489746 973.528503 1126.206055 -1.218891 -4.284774 -0.551892 0.263369 2.546414 0.742263 0.268237 -0.523333 -0.189933 0.264820 0.526731 0.143597 0.174153 -2.229600 -0.252740 0.000000 0.000000 0.000000 -3.267874 3.948773 0.126646 -0.419654 3.251370 -0.897158 -0.002548 -0.439613 -0.126305 0.000000 0.000000 0.000000 -3.408898 2.997884 -1.350441 0.944746 3.919682 -0.229110 0.521474 0.570431 2.436804 0.000000 0.000000 0.000000 0.260365 -0.361920 -2.514107 -0.126111 2.742134 0.095855 -0.096943 1.856839 0.016688 0.000000 0.000000 0.000000 -1.170655 0.669437 1.767776 -0.859373 3.069269 -1.051551 -1.017270 -0.588234 -0.288488 0.000000 0.000000 0.000000 
-3540.860352 974.187927 1125.890991 -1.220930 -4.237466 -0.584870 0.331179 2.884622 0.880720 0.341489 -0.581948 -0.225649 0.335487 0.574099 0.178051 0.180540 -2.412003 -0.257045 0.000000 0.000000 0.000000 -3.315398 3.908452 -0.025720 -0.414750 3.236813 -0.843086 0.001584 -0.495137 -0.111893 0.000000 0.000000 0.000000 -3.371435 2.927373 -1.455991 0.927749 3.868505 -0.169980 0.494493 0.502646 2.327371 0.000000 0.000000 0.000000 0.334182 -0.272656 -2.555019 -0.057036 2.685282 0.118811 -0.025661 1.700574 0.044676 0.000000 0.000000 0.000000 -1.157903 0.431242 1.816458 -0.810348 3.627148 -1.152454 -1.013474 -0.956582 -0.157447 0.000000 0.000000 0.000000 
-3539.014648 974.812866 1125.686035 -1.197129 -4.163899 -0.635770 0.414189 3.327705 0.989797 0.426182 -0.677831 -0.250927 0.420237 0.661035 0.203881 0.179695 -2.652673 -0.241479 0.000000 0.000000 0.000000 -3.397835 3.856243 -0.119334 -0.401513 3.185396 -0.832633 0.013456 -0.567667 -0.049427 0.000000 0.000000 0.000000 -3.381920 2.835963 -1.543688 0.907246 3.806138 -0.078955 0.453887 0.393643 2.163861 0.000000 0.000000 0.000000 0.372962 -0.174385 -2.535243 -0.005481 2.585568 0.068400 0.019246 1.554020 0.060702 0.000000 0.000000 0.000000 -1.143650 0.120093 1.905375 -0.748320 4.295023 -1.288200 -1.008654 -1.410838 0.004289 0.000000 0.000000 0.000000 
-3537.009766 975.450684 1125.556030 -1.159686 -4.073594 -0.704195 0.508430 3.874860 1.091810 0.521204 -0.804353 -0.276436 0.516538 0.772642 0.228227 0.174258 -2.944488 -0.212668 0.000000 0.000000 0.000000 -3.502527 3.789060 -0.183163 -0.382599 3.104952 -0.846014 0.030779 -0.655425 0.045802 0.000000 0.000000 0.000000 -3.419183 2.724186 -1.629246 0.883822 3.732095 0.041792 0.402297 0.251828 1.956062 0.000000 0.000000 0.000000 0.387623 -0.067134 -2.467314 0.035665 2.453034 -0.038139 0.046751 1.416013 0.068906 0.000000 0.000000 0.000000 -1.131039 -0.253645 2.031061 -0.677986 5.068899 -1.453200 -1.006085 -1.936672 0.190155 0.000000 0.000000 0.000000 
-3534.530762 976.080322 1125.402954 -1.089126 -3.920045 -0.777374 0.636611 4.408059 1.156238 0.648672 -0.928064 -0.279749 0.647267 0.877629 0.244312 0.168679 -3.252108 -0.183732 0.000000 0.000000 0.000000 -3.655204 3.755551 -0.272261 -0.364144 3.059910 -0.823468 0.054116 -0.769818 0.174697 0.000000 0.000000 0.000000 -3.514952 2.626551 -1.632775 0.853826 3.658052 0.115588 0.342289 0.090121 1.712061 0.000000 0.000000 0.000000 0.397189 0.013276 -2.398726 0.071291 2.311607 -0.141731 0.070458 1.229200 0.073720 0.000000 0.000000 0.000000 -1.133406 -0.689915 2.164246 -0.619938 5.874698 -1.620211 -1.018318 -2.491308 0.379037 0.000000 0.000000 0.000000 
-3531.422119 976.693848 1125.155029 -0.981764 -3.659302 -0.848227 0.829750 4.869909 1.150107 0.837991 -1.036612 -0.242998 0.843013 0.964873 0.245365 0.163646 -3.559327 -0.158265 0.000000 0.000000 0.000000 -3.921921 3.782312 -0.405077 -0.346121 3.072109 -0.741040 0.085423 -0.914901 0.349137 0.000000 0.000000 0.000000 -3.712975 2.559785 -1.466775 0.807786 3.575162 0.053365 0.276826 -0.072547 1.439513 0.000000 0.000000 0.000000 0.418928 0.047460 -2.354455 0.112273 2.135499 -0.213460 0.104295 0.963168 0.080628 0.000000 0.000000 0.000000 -1.155945 -1.230781 2.284572 -0.581965 6.710953 -1.770361 -1.050101 -3.064857 0.565169 0.000000 0.000000 0.000000 
